<svg width="18" height="23" viewBox="0 0 18 23" fill="none" xmlns="http://www.w3.org/2000/svg">
<path d="M9.46502 15.093C10.6954 15.093 11.8753 14.6042 12.7453 13.7342C13.6153 12.8642 14.104 11.6843 14.104 10.454V4.72396C14.104 3.49362 13.6153 2.31367 12.7453 1.44369C11.8753 0.573711 10.6954 0.0849609 9.46502 0.0849609C8.23555 0.0862861 7.05689 0.575622 6.18799 1.44546C5.31909 2.3153 4.83102 3.49449 4.83103 4.72396V10.455C4.83129 11.6843 5.31947 12.8632 6.18834 13.7328C7.05721 14.6024 8.23573 15.0916 9.46502 15.093ZM17.196 8.36196H16.423C16.218 8.36196 16.0214 8.4434 15.8764 8.58837C15.7315 8.73333 15.65 8.92995 15.65 9.13496V10.454C15.6492 11.3178 15.4676 12.1718 15.1169 12.9613C14.7663 13.7507 14.2543 14.4581 13.614 15.0379C12.9737 15.6176 12.2191 16.057 11.3988 16.3278C10.5785 16.5985 9.71068 16.6946 8.85103 16.61C7.29419 16.4117 5.86526 15.646 4.838 14.4595C3.81075 13.273 3.25742 11.7491 3.28403 10.18V9.13496C3.28403 8.92995 3.20258 8.73333 3.05762 8.58837C2.91265 8.4434 2.71604 8.36196 2.51103 8.36196H1.73803C1.53301 8.36196 1.3364 8.4434 1.19143 8.58837C1.04647 8.73333 0.965025 8.92995 0.965025 9.13496V10.075C0.934711 12.1754 1.65935 14.217 3.00712 15.8283C4.3549 17.4396 6.23627 18.5136 8.30903 18.855V20.505H5.60403C5.39901 20.505 5.2024 20.5864 5.05743 20.7314C4.91247 20.8763 4.83103 21.0729 4.83103 21.278V22.051C4.83103 22.256 4.91247 22.4526 5.05743 22.5976C5.2024 22.7425 5.39901 22.824 5.60403 22.824H13.335C13.54 22.824 13.7367 22.7425 13.8816 22.5976C14.0266 22.4526 14.108 22.256 14.108 22.051V21.278C14.108 21.0729 14.0266 20.8763 13.8816 20.7314C13.7367 20.5864 13.54 20.505 13.335 20.505H10.629V18.873C12.6626 18.5912 14.5259 17.584 15.8755 16.0369C17.2251 14.4898 17.97 12.507 17.973 10.454V9.13496C17.973 8.92995 17.8916 8.73333 17.7466 8.58837C17.6017 8.4434 17.405 8.36196 17.2 8.36196H17.196Z" fill="white"/>
</svg>
