<svg width="15" height="16" viewBox="0 0 15 16" fill="none" xmlns="http://www.w3.org/2000/svg">
<path d="M8.73 1.13592L5.43 4.43591H1.641C1.52387 4.43578 1.40787 4.45877 1.29964 4.50357C1.19142 4.54836 1.0931 4.61407 1.01032 4.69694C0.927546 4.77981 0.861941 4.87821 0.81727 4.98648C0.772598 5.09476 0.749739 5.21079 0.750002 5.32791V10.6719C0.750002 10.9082 0.843875 11.1349 1.01097 11.3019C1.17807 11.469 1.40469 11.5629 1.641 11.5629H5.428L8.728 14.8629C8.8525 14.9878 9.01125 15.0729 9.18415 15.1075C9.35706 15.1421 9.53635 15.1247 9.69931 15.0573C9.86228 14.99 10.0016 14.8758 10.0996 14.7292C10.1977 14.5826 10.25 14.4102 10.25 14.2339V1.76592C10.2498 1.58991 10.1975 1.4179 10.0996 1.27161C10.0017 1.12531 9.86275 1.01127 9.70016 0.943876C9.53756 0.876484 9.35865 0.858759 9.18599 0.892936C9.01333 0.927113 8.85466 1.01166 8.73 1.13592ZM13.302 5.14691C13.0948 5.03385 12.8513 5.0073 12.6247 5.07305C12.398 5.13881 12.2065 5.29153 12.092 5.49791C11.9781 5.70492 11.9511 5.94869 12.017 6.17559C12.0828 6.4025 12.236 6.59398 12.443 6.70791C12.6763 6.83397 12.8715 7.02037 13.0082 7.24764C13.1449 7.47492 13.218 7.73472 13.22 7.99992C13.2173 8.26455 13.1437 8.52363 13.0069 8.75017C12.8701 8.9767 12.675 9.1624 12.442 9.28792C12.235 9.40185 12.0818 9.59333 12.016 9.82024C11.9501 10.0471 11.9771 10.2909 12.091 10.4979C12.2051 10.7047 12.3966 10.8578 12.6234 10.9236C12.8503 10.9894 13.0939 10.9625 13.301 10.8489C13.8137 10.569 14.242 10.1566 14.541 9.65479C14.84 9.15296 14.9989 8.58008 15.001 7.99591C14.9983 7.41241 14.8391 6.84032 14.5401 6.33923C14.2411 5.83815 13.8132 5.42641 13.301 5.14691H13.302Z" fill="#4F55EA"/>
</svg>
